<svg xmlns="http://www.w3.org/2000/svg" id="Calque_1" data-name="Calque 1" viewBox="0 0 455.54 114.37"><defs></defs><title>logo-baseline</title><polygon class="cls-1" points="76.83 50.65 76.83 76.83 0 76.83 76.83 50.65"></polygon><polygon class="cls-2" points="76.83 50.65 76.83 20.49 0 76.83 76.83 50.65"></polygon><polygon class="cls-1" points="76.83 0 0 0 0 76.83 0.01 76.81 0 76.83 76.83 20.48 76.83 0 76.82 0 76.83 0"></polygon><path class="cls-2" d="M105.94,1.06h29.24c14.19,0,24.11,9.92,24.11,24.65s-9.92,25-24.11,25H119.71V76.82H105.94Zm26.68,37.66c8,0,12.69-5.12,12.69-13S140.62,12.9,132.83,12.9H119.71V38.72Z"></path><path class="cls-2" d="M257.94,1.06h24.43c8.22,0,12,.64,15.26,2.13C305.21,6.61,310,13.86,310,23.89c0,9.07-4.8,17.5-12.8,20.7v.22a18.7,18.7,0,0,1,2.56,3.73l15.58,28.28H300L285,48.54H271.71V76.82H257.94Zm26.14,35.53c7.36,0,11.95-4.37,11.95-12,0-7.26-3.09-11.74-13.87-11.74H271.71V36.59Z"></path><path class="cls-2" d="M340.14,1.06h45.35V12.9H353.91V32.75h25.5V44.59h-25.5V65H387.2V76.82H340.14Z"></path><path class="cls-2" d="M412,1.06h43.54V12.9H425.8V34.35h25.07V46.19H425.8V76.82H412Z"></path><polyline class="cls-2" points="190.62 62.86 194.66 50.63 181.26 50.63 171.73 76.83 185.93 76.83 190.59 63.16"></polyline><path class="cls-2" d="M218,63.16l4.56,13.67h14.2l-9.57-26.19h-13.5S217.85,63,218,63.16"></path><polygon class="cls-1" points="199.29 1.06 185.59 38.72 198.91 38.72 204.59 22.38 210.07 38.72 222.87 38.72 209.12 1.06 199.29 1.06"></polygon><path class="cls-2" d="M196.94,114h3.41l.93-6.18h-3.4Zm-2.83-6.18-1.46,2.4-.67-2.4h-3.33l1.82,6.18h3.26l3.82-6.25Zm-10,6.18h3.24l.92-6.18H185Z"></path><path class="cls-2" d="M212.11,98.79a8.08,8.08,0,0,1,2.92.49,6.52,6.52,0,0,1,2.25,1.37,5.81,5.81,0,0,1,1.46,2.11,7.26,7.26,0,0,1,.5,2.73,8.48,8.48,0,0,1-.67,3.58,8.57,8.57,0,0,1-10.83,4.64,6.6,6.6,0,0,1-2.24-1.45,6.06,6.06,0,0,1-1.46-2.11,7.32,7.32,0,0,1-.51-2.74,8.51,8.51,0,0,1,2.6-6.34,8.9,8.9,0,0,1,2.76-1.76,8.55,8.55,0,0,1,3.24-.6m-1.3,12.21a4.25,4.25,0,0,0,1.72-.37,4.6,4.6,0,0,0,1.46-1.06,5.64,5.64,0,0,0,1.07-1.69,6,6,0,0,0,.41-2.27,3.64,3.64,0,0,0-1-2.65,3.48,3.48,0,0,0-2.65-1,4.43,4.43,0,0,0-1.72.37,4.57,4.57,0,0,0-1.45,1.05,5.33,5.33,0,0,0-1.07,1.69,5.94,5.94,0,0,0-.41,2.25,3.77,3.77,0,0,0,1,2.7,3.46,3.46,0,0,0,2.64,1"></path><path class="cls-2" d="M232.78,113.9h-3.86l-1.54-5.22h-2.65l-.8,5.22h-3.47l2.23-14.84h6.46a5.56,5.56,0,0,1,3.66,1.17,4.09,4.09,0,0,1,1.46,3.33,4.69,4.69,0,0,1-.88,2.78,5.09,5.09,0,0,1-2.43,1.83Zm-7.65-8h2.64a3,3,0,0,0,2.08-.62,2.06,2.06,0,0,0,.66-1.55c0-1.16-.7-1.76-2.13-1.76h-2.65Z"></path><polygon class="cls-2" points="240.46 102.14 240.03 104.95 245.89 104.96 245.41 107.84 239.6 107.83 239.13 110.83 245.73 110.86 245.26 113.9 235.21 113.9 237.44 99.06 247.52 99.06 247.03 102.14 240.46 102.14"></polygon><polygon class="cls-2" points="266.34 102.15 262.03 102.15 260.26 113.9 256.8 113.9 258.56 102.15 254.22 102.15 254.7 99.06 266.82 99.06 266.34 102.15"></polygon><polygon class="cls-2" points="268.87 99.06 272.34 99.06 271.47 104.96 277.38 104.98 278.27 99.06 281.76 99.06 279.54 113.9 276.02 113.9 276.93 107.86 271.03 107.83 270.11 113.9 266.64 113.9 268.87 99.06"></polygon><path class="cls-2" d="M295.54,113.9h-3.67l-.64-3.1h-4.76l-1.53,3.1h-3.53L289,99.06h3.13ZM290.68,108l-.79-3.9-2,3.9Z"></path><polygon class="cls-2" points="299.63 99.06 303.07 99.06 308.3 108.73 309.76 99.06 313.19 99.06 310.97 113.9 307.53 113.9 302.3 104.26 300.84 113.9 297.41 113.9 299.63 99.06"></polygon><path class="cls-2" d="M332,113.9h-3.86l-1.54-5.22h-2.66l-.79,5.22h-3.48l2.24-14.84h6.47a5.52,5.52,0,0,1,3.64,1.17,4,4,0,0,1,1.46,3.33,4.69,4.69,0,0,1-.88,2.78,5.11,5.11,0,0,1-2.46,1.83Zm-7.69-8h2.64a3,3,0,0,0,2.08-.62,2,2,0,0,0,.67-1.55c0-1.16-.71-1.76-2.12-1.76h-2.65Z"></path><polygon class="cls-2" points="339.63 102.14 339.21 104.95 345.05 104.96 344.58 107.84 338.77 107.83 338.3 110.83 344.9 110.86 344.44 113.9 334.37 113.9 336.6 99.06 346.68 99.06 346.2 102.14 339.63 102.14"></polygon><path class="cls-2" d="M360.05,113.9h-3.67l-.64-3.1H351l-1.59,3.13h-3.53l7.62-14.84h3.13ZM355.17,108l-.79-3.9-2,3.9Z"></path><polygon class="cls-2" points="372.07 110.99 371.64 113.9 362.47 113.9 361.91 113.9 364.14 99.06 367.65 99.06 365.86 110.99 372.07 110.99"></polygon><polygon class="cls-2" points="384.68 102.14 384.26 104.95 390.11 104.96 389.63 107.84 383.82 107.83 383.35 110.83 389.95 110.86 389.49 113.9 379.42 113.9 381.65 99.06 391.73 99.06 391.25 102.14 384.68 102.14"></polygon><path class="cls-2" d="M399.3,98.79a6.13,6.13,0,0,1,3.76,1,3.55,3.55,0,0,1,1.46,2.74l-3.41.8a1.48,1.48,0,0,0-.63-1.2,2.78,2.78,0,0,0-1.57-.39,2.64,2.64,0,0,0-1.66.44,1.41,1.41,0,0,0-.55,1.12c0,.68.43,1.13,1.31,1.35l2.37.65a5,5,0,0,1,2.69,1.45,3.67,3.67,0,0,1,.89,2.55,4,4,0,0,1-.46,1.92,4.55,4.55,0,0,1-1.3,1.46,6.61,6.61,0,0,1-2,1,8.59,8.59,0,0,1-2.62.36,6.87,6.87,0,0,1-4-1.06,3.89,3.89,0,0,1-1.68-2.91l3.37-.79a1.44,1.44,0,0,0,.73,1.31,3.63,3.63,0,0,0,2,.45,3.2,3.2,0,0,0,1.82-.42,1.23,1.23,0,0,0,.67-1.09c0-.63-.42-1-1.28-1.28l-2.4-.69a5.31,5.31,0,0,1-2.67-1.54,3.51,3.51,0,0,1-.91-2.4,4.59,4.59,0,0,1,.43-2,4.37,4.37,0,0,1,1.26-1.54,5.62,5.62,0,0,1,1.95-.95,8.13,8.13,0,0,1,2.5-.36"></path><polygon class="cls-2" points="418.09 102.15 413.78 102.15 412.02 113.9 408.55 113.9 410.3 102.15 405.97 102.15 406.44 99.06 418.56 99.06 418.09 102.15"></polygon><path class="cls-2" d="M429.73,113.9h-3.67l-.64-3.1h-4.77l-1.58,3.13h-3.51l7.61-14.84h3.14ZM424.86,108l-.8-3.9-2,3.9Z"></path><polygon class="cls-2" points="442.84 102.15 438.53 102.15 436.76 113.9 433.3 113.9 435.05 102.15 430.72 102.15 431.19 99.06 443.3 99.06 442.84 102.15"></polygon><polygon class="cls-2" points="448.39 102.14 447.96 104.95 453.8 104.96 453.34 107.84 447.53 107.83 447.06 110.83 453.66 110.86 453.19 113.9 443.13 113.9 445.36 99.06 455.44 99.06 454.95 102.14 448.39 102.14"></polygon><polygon class="cls-1" points="191.53 105.92 185.31 105.92 186.33 99.06 189.64 99.06 191.53 105.92"></polygon><polygon class="cls-1" points="202.57 99.06 201.55 105.92 195.16 105.92 199.16 99.06 202.57 99.06"></polygon><polygon class="cls-1" points="179.79 97.1 176.41 109.42 175.4 109.19 178.77 96.85 179.79 97.1"></polygon><polygon class="cls-2" points="175.64 102.03 172.26 114.37 171.24 114.12 174.62 101.79 175.64 102.03"></polygon></svg>